<svg xmlns="http://www.w3.org/2000/svg" xmlns:xlink="http://www.w3.org/1999/xlink" width="520" zoomAndPan="magnify" viewBox="0 0 390 389.999986" height="520" preserveAspectRatio="xMidYMid meet" version="1.0"><path fill="#0cc0df" d="M 182.835938 2.359375 C 305.390625 -3.769531 403.253906 100.761719 384.851562 223.003906 C 366.449219 345.246094 246.101562 413.996094 133.148438 375.644531 C 31.722656 341.199219 -22.253906 228.90625 14.65625 127.742188 C 40.175781 57.792969 107.867188 6.109375 182.835938 2.359375 Z M 189.171875 20.96875 C 173.496094 21.664062 157.765625 23.886719 142.9375 29.078125 C 156.046875 47.792969 165.25 69.652344 169.882812 92.066406 C 173.09375 107.570312 174.378906 124.410156 173.339844 140.226562 C 172.871094 147.292969 171.585938 154.304688 170.925781 161.355469 C 187.003906 182.238281 195.734375 205.523438 204.15625 230.15625 C 204.3125 230.625 204.398438 231.667969 204.988281 231.597656 C 211.324219 197.484375 214.121094 163.074219 205.285156 129.113281 C 197.089844 97.621094 183.042969 80.851562 185.003906 45.328125 C 185.457031 37.097656 187.609375 29.007812 189.171875 20.96875 Z M 229.15625 153.351562 C 234.675781 138.332031 239.78125 123.109375 242.367188 107.238281 C 246.359375 82.707031 245.320312 54.773438 235.179688 31.820312 C 234.675781 30.691406 232.402344 25.691406 231.847656 25.15625 C 229.710938 23.089844 212.730469 22.167969 208.980469 21.371094 C 204.761719 33.089844 203.042969 45.78125 203.722656 58.261719 C 204.953125 80.9375 216.949219 100.417969 222.785156 122.046875 C 225.578125 132.429688 226.480469 141.890625 228.425781 152.222656 C 228.496094 152.605469 228.601562 153.472656 229.15625 153.367188 Z M 262.886719 95.484375 C 278.894531 86.386719 293.390625 74.738281 306.605469 61.976562 C 291.585938 48.972656 274.15625 38.503906 255.386719 31.804688 C 262.730469 52.082031 264.382812 74.042969 262.886719 95.484375 Z M 124.96875 36.003906 C 123.945312 35.398438 110.941406 42.636719 108.929688 43.785156 C 104.777344 46.179688 100.316406 48.921875 96.410156 51.664062 C 94.726562 52.847656 90.109375 55.902344 88.996094 57.152344 C 87.765625 58.523438 89.238281 62.515625 89.742188 64.339844 C 97.9375 93.105469 129.710938 123.941406 152.921875 141.890625 C 153.339844 142.222656 153.460938 142.691406 154.171875 142.515625 C 156.152344 114.167969 151.339844 85.570312 139.121094 59.945312 C 135.109375 51.542969 130.125 43.714844 124.953125 36.003906 Z M 72.554688 72.167969 C 65.855469 78.367188 59.535156 85.78125 54.308594 93.261719 C 50.699219 98.4375 49.449219 100.105469 48.457031 106.5625 C 45.421875 126.421875 49.515625 148.472656 62.15625 164.359375 C 70.332031 174.617188 81.097656 181.683594 92.765625 187.429688 C 102.503906 167.8125 105.976562 143.820312 100.351562 122.449219 C 98.09375 113.855469 94.152344 111.199219 89.308594 104.355469 C 82.363281 94.582031 76.167969 83.664062 72.574219 72.167969 Z M 224.570312 230.347656 C 236.273438 202.363281 261.066406 184.757812 281.222656 163.542969 C 301.378906 142.328125 320.5625 116.980469 332.855469 89.878906 C 329.625 84.390625 324.851562 80.070312 320.769531 75.257812 C 320.285156 74.878906 320.09375 75.207031 319.730469 75.46875 C 318.425781 76.351562 316.691406 78.664062 315.371094 79.878906 C 300.632812 93.261719 284.277344 106.09375 266.378906 114.980469 C 265.007812 115.660156 259.867188 117.394531 259.363281 118.386719 C 253.738281 146.355469 241.933594 172.464844 228.425781 197.34375 C 228.375 207.917969 225.230469 218.628906 224.226562 228.941406 C 224.171875 229.410156 223.84375 230.433594 224.589844 230.347656 Z M 358.6875 138.765625 C 359.367188 138.125 352.941406 123.246094 352.089844 121.421875 C 351.621094 120.382812 345.597656 107.933594 344.9375 108.386719 L 336.777344 122.917969 L 322.871094 143.765625 C 334.433594 140.382812 346.605469 138.59375 358.6875 138.765625 Z M 142.105469 233.699219 C 122.453125 221.320312 100.523438 213.195312 80.195312 202.136719 C 51.6875 186.617188 40.4375 171.648438 31.113281 140.867188 C 30.992188 140.46875 31.046875 139.914062 30.488281 140.035156 C 27.292969 151.300781 24.34375 162.742188 23.042969 174.425781 C 22.695312 177.535156 22.277344 181.269531 22.136719 184.359375 C 21.929688 188.976562 21.480469 199.359375 22.171875 203.507812 C 22.625 206.199219 32.382812 216.804688 34.847656 219.152344 C 62.746094 245.78125 106.097656 251.113281 140.855469 234.757812 C 141.167969 234.601562 142.332031 234.0625 142.105469 233.714844 Z M 192.089844 259.914062 C 185.648438 228.839844 174.605469 197.519531 155.195312 172.117188 C 146.273438 160.453125 135.925781 151.945312 124.832031 142.535156 C 124.464844 142.222656 121.984375 140.140625 121.722656 140.453125 C 122.589844 159.445312 118.007812 178.144531 110.109375 195.261719 L 110.230469 195.816406 C 138.339844 209.394531 167.765625 223.578125 185.941406 250.035156 Z M 251.238281 222.03125 C 253.878906 220.277344 256.777344 218.613281 259.695312 217.378906 C 278.617188 209.375 291.378906 207.882812 311.414062 205.382812 C 334.902344 202.449219 354.695312 189.984375 366.414062 169.394531 L 364.3125 157.917969 C 363.808594 157.238281 356.585938 157.449219 355.148438 157.519531 C 329.765625 158.75 305.980469 167.449219 287.039062 184.359375 C 276.691406 193.578125 263.566406 205.710938 254.988281 216.425781 C 254.484375 217.050781 250.890625 221.667969 251.238281 222.03125 Z M 359.523438 248.246094 C 364.191406 232.015625 367.925781 215.332031 367.855469 198.300781 C 355.199219 210.382812 339.46875 219.445312 322.039062 222.449219 C 325.910156 225.175781 330.425781 227.222656 334.503906 229.757812 C 343.359375 235.261719 350.371094 242.328125 358.480469 247.832031 C 358.828125 248.074219 358.878906 248.421875 359.523438 248.25 Z M 279.46875 231.738281 C 271.671875 232.378906 266.167969 235.679688 260.023438 240.191406 C 233.21875 259.878906 227.332031 292.292969 227.886719 323.839844 C 228.027344 331.253906 228.097656 340.644531 228.738281 347.953125 C 229.503906 356.511719 236.691406 361.53125 244.988281 359.636719 C 248.53125 358.839844 253.253906 356.894531 256.742188 355.558594 C 298.113281 339.828125 332.734375 307.554688 351.535156 267.535156 C 351.605469 266.738281 344.210938 260.46875 343.046875 259.5 C 326.550781 245.660156 301.847656 229.898438 279.453125 231.71875 Z M 70.054688 259.5 C 54.394531 255.488281 40.074219 247.535156 27.574219 237.433594 C 32.140625 254.464844 39.066406 270.886719 48.597656 285.714844 C 53.859375 275.382812 61.203125 266.875 70.039062 259.5 Z M 155.230469 250.574219 C 148.773438 250.574219 134.953125 257 127.539062 258.875 C 118.597656 261.128906 109.273438 261.875 100.472656 264.707031 C 82.070312 270.609375 66.148438 285.160156 62.226562 304.585938 C 84.050781 330.730469 114.101562 350.800781 147.035156 360.125 C 154.796875 362.328125 166.152344 366.011719 173.652344 362.398438 C 182.679688 358.058594 183.390625 350.160156 184.554688 341.234375 C 188.113281 313.910156 186.585938 282.46875 169.78125 259.53125 C 165.925781 254.273438 162.332031 250.558594 155.25 250.574219 Z M 155.230469 250.574219 " fill-opacity="1" fill-rule="nonzero"/></svg>