<svg xmlns="http://www.w3.org/2000/svg" xmlns:xlink="http://www.w3.org/1999/xlink" width="721" zoomAndPan="magnify" viewBox="0 0 540.75 254.999984" height="340" preserveAspectRatio="xMidYMid meet" version="1.0"><path fill="#fafafa" d="M 117.882812 9.765625 C 194.648438 5.925781 255.949219 71.402344 244.421875 147.972656 C 232.894531 224.542969 157.511719 267.605469 86.757812 243.582031 C 23.230469 222.007812 -10.582031 151.667969 12.539062 88.300781 C 28.523438 44.488281 70.925781 12.113281 117.882812 9.765625 Z M 121.851562 21.421875 C 112.03125 21.855469 102.179688 23.25 92.894531 26.5 C 101.101562 38.222656 106.867188 51.914062 109.769531 65.953125 C 111.78125 75.664062 112.585938 86.214844 111.933594 96.121094 C 111.640625 100.546875 110.835938 104.941406 110.421875 109.355469 C 120.492188 122.4375 125.964844 137.019531 131.238281 152.453125 C 131.335938 152.746094 131.390625 153.398438 131.757812 153.355469 C 135.730469 131.984375 137.480469 110.433594 131.945312 89.160156 C 126.8125 69.433594 118.015625 58.929688 119.242188 36.679688 C 119.523438 31.523438 120.875 26.457031 121.851562 21.421875 Z M 146.898438 104.34375 C 150.355469 94.933594 153.550781 85.398438 155.171875 75.457031 C 157.675781 60.09375 157.023438 42.59375 150.671875 28.21875 C 150.355469 27.511719 148.929688 24.378906 148.582031 24.042969 C 147.246094 22.75 136.609375 22.171875 134.261719 21.671875 C 131.617188 29.011719 130.542969 36.960938 130.964844 44.78125 C 131.738281 58.984375 139.253906 71.183594 142.90625 84.734375 C 144.65625 91.238281 145.222656 97.164062 146.441406 103.636719 C 146.484375 103.875 146.550781 104.417969 146.898438 104.351562 Z M 168.027344 68.097656 C 178.054688 62.398438 187.132812 55.101562 195.410156 47.109375 C 186.003906 38.964844 175.085938 32.40625 163.328125 28.207031 C 167.929688 40.910156 168.960938 54.667969 168.027344 68.097656 Z M 81.636719 30.839844 C 80.996094 30.457031 72.851562 34.992188 71.589844 35.710938 C 68.988281 37.210938 66.195312 38.929688 63.75 40.648438 C 62.695312 41.386719 59.800781 43.300781 59.105469 44.085938 C 58.332031 44.945312 59.257812 47.445312 59.574219 48.585938 C 64.707031 66.605469 84.605469 85.921875 99.144531 97.164062 C 99.40625 97.371094 99.484375 97.664062 99.929688 97.554688 C 101.167969 79.796875 98.15625 61.886719 90.5 45.835938 C 87.988281 40.574219 84.867188 35.667969 81.625 30.839844 Z M 48.804688 53.492188 C 44.609375 57.375 40.648438 62.015625 37.378906 66.703125 C 35.113281 69.945312 34.332031 70.988281 33.710938 75.035156 C 31.808594 87.476562 34.375 101.285156 42.292969 111.238281 C 47.414062 117.664062 54.15625 122.089844 61.464844 125.691406 C 67.566406 113.402344 69.742188 98.371094 66.21875 84.984375 C 64.804688 79.601562 62.335938 77.9375 59.300781 73.652344 C 54.949219 67.53125 51.070312 60.691406 48.816406 53.492188 Z M 144.027344 152.570312 C 151.355469 135.042969 166.886719 124.015625 179.511719 110.726562 C 192.136719 97.4375 204.152344 81.558594 211.851562 64.582031 C 209.828125 61.148438 206.839844 58.441406 204.285156 55.425781 C 203.980469 55.1875 203.859375 55.394531 203.632812 55.558594 C 202.816406 56.113281 201.726562 57.558594 200.902344 58.320312 C 191.667969 66.703125 181.425781 74.742188 170.210938 80.308594 C 169.355469 80.734375 166.132812 81.820312 165.820312 82.441406 C 162.296875 99.960938 154.902344 116.316406 146.441406 131.898438 C 146.40625 138.523438 144.441406 145.230469 143.808594 151.691406 C 143.777344 151.984375 143.570312 152.625 144.039062 152.570312 Z M 228.035156 95.207031 C 228.457031 94.804688 224.433594 85.484375 223.902344 84.34375 C 223.609375 83.691406 219.835938 75.894531 219.421875 76.175781 L 214.308594 85.277344 L 205.597656 98.339844 C 212.84375 96.21875 220.464844 95.097656 228.035156 95.207031 Z M 92.371094 154.671875 C 80.0625 146.917969 66.324219 141.828125 53.589844 134.902344 C 35.734375 125.179688 28.6875 115.804688 22.847656 96.523438 C 22.773438 96.273438 22.804688 95.925781 22.457031 96 C 20.457031 103.058594 18.605469 110.226562 17.792969 117.542969 C 17.574219 119.492188 17.3125 121.828125 17.226562 123.765625 C 17.09375 126.65625 16.8125 133.160156 17.246094 135.757812 C 17.53125 137.445312 23.640625 144.089844 25.1875 145.558594 C 42.664062 162.238281 69.816406 165.578125 91.589844 155.335938 C 91.785156 155.234375 92.511719 154.898438 92.371094 154.683594 Z M 123.679688 171.089844 C 119.644531 151.625 112.730469 132.007812 100.570312 116.097656 C 94.980469 108.789062 88.5 103.460938 81.550781 97.566406 C 81.320312 97.371094 79.765625 96.066406 79.605469 96.261719 C 80.148438 108.160156 77.277344 119.871094 72.328125 130.59375 L 72.40625 130.941406 C 90.011719 139.445312 108.445312 148.332031 119.828125 164.902344 Z M 160.730469 147.363281 C 162.382812 146.265625 164.199219 145.21875 166.027344 144.449219 C 177.878906 139.433594 185.871094 138.5 198.421875 136.933594 C 213.136719 135.097656 225.53125 127.289062 232.875 114.390625 L 231.558594 107.203125 C 231.242188 106.777344 226.71875 106.910156 225.816406 106.953125 C 209.917969 107.722656 195.019531 113.171875 183.152344 123.765625 C 176.671875 129.539062 168.449219 137.140625 163.078125 143.851562 C 162.761719 144.242188 160.511719 147.132812 160.730469 147.363281 Z M 228.554688 163.785156 C 231.480469 153.617188 233.820312 143.164062 233.777344 132.496094 C 225.847656 140.066406 215.996094 145.742188 205.078125 147.625 C 207.503906 149.332031 210.328125 150.613281 212.886719 152.203125 C 218.429688 155.648438 222.824219 160.074219 227.902344 163.523438 C 228.121094 163.675781 228.152344 163.894531 228.554688 163.785156 Z M 178.414062 153.441406 C 173.53125 153.84375 170.082031 155.910156 166.234375 158.738281 C 149.441406 171.070312 145.753906 191.375 146.101562 211.132812 C 146.191406 215.777344 146.234375 221.660156 146.636719 226.238281 C 147.113281 231.597656 151.617188 234.742188 156.816406 233.554688 C 159.035156 233.054688 161.992188 231.839844 164.175781 231 C 190.09375 221.148438 211.777344 200.933594 223.554688 175.867188 C 223.597656 175.367188 218.964844 171.441406 218.234375 170.832031 C 207.90625 162.164062 192.429688 152.289062 178.402344 153.429688 Z M 47.242188 170.832031 C 37.429688 168.320312 28.460938 163.339844 20.628906 157.007812 C 23.488281 167.675781 27.828125 177.964844 33.800781 187.25 C 37.09375 180.78125 41.695312 175.453125 47.230469 170.832031 Z M 100.59375 165.242188 C 96.546875 165.242188 87.890625 169.265625 83.246094 170.4375 C 77.644531 171.851562 71.808594 172.320312 66.292969 174.09375 C 54.765625 177.789062 44.792969 186.902344 42.335938 199.074219 C 56.003906 215.449219 74.828125 228.019531 95.460938 233.859375 C 100.320312 235.242188 107.433594 237.546875 112.128906 235.285156 C 117.785156 232.566406 118.230469 227.617188 118.960938 222.03125 C 121.1875 204.914062 120.230469 185.21875 109.707031 170.851562 C 107.292969 167.558594 105.039062 165.230469 100.601562 165.242188 Z M 100.59375 165.242188 " fill-opacity="1" fill-rule="nonzero"/><path fill="#fafafa" d="M 522.554688 98.601562 C 517.378906 94.816406 510.769531 92.347656 504.515625 90.957031 C 478.785156 85.257812 449.707031 100.089844 447.695312 128.203125 C 444.964844 166.328125 488.160156 184.078125 518.726562 167.132812 C 519.425781 166.753906 522.046875 164.609375 522.566406 164.949219 L 536.09375 192.4375 C 526.132812 199.324219 515.050781 202.847656 503.089844 204.433594 C 475.4375 208.097656 449.566406 199.648438 430.859375 178.921875 C 397.953125 142.449219 411.230469 88.855469 453.511719 67.007812 C 473.804688 56.527344 496.238281 55.425781 518 62.09375 C 524.578125 64.105469 530.800781 66.640625 536.085938 71.128906 Z M 522.554688 98.601562 " fill-opacity="1" fill-rule="nonzero"/><path fill="#fafafa" d="M 412.46875 60.527344 L 412.46875 88.953125 L 363.6875 88.953125 L 363.6875 117.121094 L 410.253906 117.121094 L 410.644531 117.511719 L 410.644531 145.417969 L 410.253906 145.753906 C 410.144531 145.753906 410.054688 145.546875 409.992188 145.546875 L 364.078125 145.546875 L 363.6875 145.9375 L 363.6875 174.234375 L 412.472656 174.234375 L 412.472656 202.660156 L 331.074219 202.660156 L 331.074219 60.917969 L 331.464844 60.527344 Z M 412.46875 60.527344 " fill-opacity="1" fill-rule="nonzero"/><path fill="#fafafa" d="M 324.558594 60.527344 L 324.558594 167.058594 C 323.253906 190.785156 307.703125 204.054688 284.507812 205.238281 C 270.5 205.957031 256.992188 201.59375 247.164062 191.558594 L 257.253906 164.828125 C 257.65625 164.71875 257.691406 164.9375 257.90625 165.089844 C 259.625 166.253906 261.257812 168.035156 263.0625 169.320312 C 276.71875 178.996094 291.171875 174.148438 292.21875 156.628906 L 292.21875 60.527344 C 292.21875 60.527344 324.558594 60.527344 324.558594 60.527344 Z M 324.558594 60.527344 " fill-opacity="1" fill-rule="nonzero"/></svg>